M48
; DRILL file {KiCad 8.0.5} date 2025-04-27T01:42:07+0800
; FORMAT={-:-/ absolute / inch / decimal}
; #@! TF.CreationDate,2025-04-27T01:42:07+08:00
; #@! TF.GenerationSoftware,Kicad,Pcbnew,8.0.5
; #@! TF.FileFunction,Plated,1,2,PTH
FMAT,2
INCH
; #@! TA.AperFunction,Plated,PTH,ViaDrill
T1C0.0120
; #@! TA.AperFunction,Plated,PTH,ComponentDrill
T2C0.0315
; #@! TA.AperFunction,Plated,PTH,ComponentDrill
T3C0.0354
; #@! TA.AperFunction,Plated,PTH,ComponentDrill
T4C0.0394
; #@! TA.AperFunction,Plated,PTH,ComponentDrill
T5C0.0413
; #@! TA.AperFunction,Plated,PTH,ComponentDrill
T6C0.0472
; #@! TA.AperFunction,Plated,PTH,ComponentDrill
T7C0.0551
; #@! TA.AperFunction,Plated,PTH,ComponentDrill
T8C0.1260
%
G90
G05
T1
X1.2274Y-4.935
X1.2815Y-4.4488
X1.2815Y-4.7998
X1.3022Y-3.3366
X1.3022Y-3.4892
X1.3031Y-3.1299
X1.3307Y-4.2687
X1.3317Y-3.6752
X1.3317Y-3.8199
X1.3632Y-2.7372
X1.3953Y-2.7405
X1.4045Y-4.8612
X1.4193Y-2.8917
X1.4311Y-4.935
X1.4488Y-4.1457
X1.4488Y-4.2224
X1.4532Y-4.9099
X1.5774Y-3.1785
X1.5886Y-3.7441
X1.6063Y-3.1476
X1.6339Y-3.686
X1.6614Y-3.4035
X1.6614Y-3.563
X1.7146Y-3.2559
X1.7736Y-3.8917
X1.7736Y-4.4173
X1.7785Y-3.5354
X1.8967Y-2.4872
X1.9926Y-3.1718
X2.0285Y-4.9921
X2.0295Y-4.5807
X2.0531Y-3.2008
X2.0531Y-4.3012
X2.0768Y-3.2323
X2.1004Y-3.2874
X2.1024Y-3.8219
X2.128Y-5.3986
X2.1555Y-5.0128
X2.189Y-5.0128
X2.2735Y-4.2126
X2.314Y-2.4872
X2.437Y-3.813
X2.4705Y-4.4134
X2.5128Y-5.4508
X2.6663Y-4.377
X2.7461Y-4.0236
X2.7815Y-5.6417
X2.7874Y-2.6476
X2.7933Y-4.6152
X2.8013Y-4.9391
X2.8118Y-4.9004
X2.8219Y-3.877
X2.823Y-4.8613
X2.8327Y-4.6681
X2.8327Y-4.718
X2.8327Y-4.818
X2.8337Y-4.7681
X2.8474Y-4.6378
X2.8545Y-4.3248
X2.8888Y-2.6467
X2.8971Y-4.283
X2.8996Y-5.6417
X2.8996Y-5.6831
X2.9262Y-4.062
X2.9882Y-2.6476
X2.9923Y-4.1848
X3.0345Y-4.1407
X3.06Y-4.625
X3.064Y-4.5876
X3.1014Y-4.0837
X3.1152Y-3.5591
X3.1299Y-4.4921
X3.1329Y-3.69
X3.1516Y-4.3868
X3.1565Y-3.5965
X3.1939Y-3.8022
X3.2047Y-4.4921
X3.2047Y-4.5837
X3.216Y-4.3223
X3.2451Y-4.8533
X3.2815Y-2.5571
X3.3081Y-3.7539
X3.315Y-4.9911
X3.3583Y-3.5325
X3.374Y-5.0157
X3.378Y-2.6476
X3.3967Y-5.0443
X3.4114Y-4.373
X3.4173Y-5.0738
X3.4341Y-3.7392
X3.436Y-5.0994
X3.4575Y-3.8279
X3.4577Y-5.124
X3.4611Y-4.3243
X3.4696Y-3.8682
X3.4715Y-4.918
X3.4833Y-5.1506
X3.5089Y-5.1713
X3.5374Y-5.1929
X3.5512Y-2.6467
X3.565Y-5.2126
X3.5728Y-4.8681
X3.5955Y-3.1368
X3.5965Y-3.4941
X3.5965Y-4.4026
X3.628Y-3.1368
X3.6289Y-3.4931
X3.6659Y-4.2776
X3.7165Y-4.818
X3.752Y-2.1348
X3.814Y-4.7681
X3.8406Y-5.5709
X3.9203Y-4.4681
X3.9281Y-5.4961
X3.9774Y-4.6135
X4.0118Y-4.718
X4.0335Y-5.4961
X4.0453Y-4.1467
X4.0472Y-4.668
X4.0577Y-3.7388
X4.0659Y-4.218
X4.0876Y-4.1681
X4.0876Y-3.6811
X4.1102Y-4.3681
X4.1368Y-3.5767
X4.1614Y-4.418
X4.167Y-3.5182
X4.1717Y-3.4857
X4.1781Y-5.2648
X4.2199Y-3.3823
X4.2239Y-3.3499
X4.2456Y-3.2717
X4.2707Y-3.618
X4.2707Y-4.5681
X4.2953Y-3.418
X4.2953Y-5.038
X4.2963Y-3.8425
X4.3642Y-2.2018
X4.4997Y-3.6181
X4.5207Y-3.7661
X4.544Y-3.7884
X4.544Y-5.373
X4.5453Y-3.6181
X4.5865Y-3.8602
X4.6388Y-3.1171
X4.6585Y-3.9508
X4.6919Y-3.9459
X4.7116Y-2.252
X4.7844Y-5.2648
X4.8642Y-2.5098
X4.872Y-3.4065
X4.9216Y-3.4065
X4.9311Y-3.0276
X4.9311Y-3.126
X4.935Y-3.3012
X5.1004Y-3.3415
X5.1004Y-3.4783
X5.124Y-2.4045
X5.1339Y-3.8465
X5.2047Y-3.9518
X5.2195Y-3.9203
X5.3858Y-2.8848
X5.3858Y-3.1378
X5.3858Y-3.4843
X5.3858Y-3.747
X5.3858Y-3.8425
X5.3858Y-4.0935
X5.3858Y-4.9055
X5.3858Y-5.3799
X5.3858Y-5.7096
X5.5039Y-2.4045
T2
X1.1927Y-4.6612
X1.1927Y-4.7612
X1.1927Y-4.8612
X2.4987Y-3.9304
X2.6346Y-3.7946
X5.0287Y-3.6067
X5.2208Y-3.6067
T3
X1.5872Y-5.2146
X1.5872Y-5.3146
T4
X1.9838Y-1.7697
X2.1806Y-1.7697
X4.0697Y-5.6475
X4.0697Y-5.7475
X4.1697Y-5.6475
X4.1697Y-5.7475
X4.2697Y-5.6475
X4.2697Y-5.7475
X4.3697Y-5.6475
X4.3697Y-5.7475
X4.4697Y-5.6475
X4.4697Y-5.7475
X4.5697Y-5.6475
X4.5697Y-5.7475
X4.6697Y-5.6475
X4.6697Y-5.7475
X4.7697Y-5.6475
X4.7697Y-5.7475
X4.8697Y-5.6475
X4.8697Y-5.7475
X4.9697Y-5.6475
X4.9697Y-5.7475
X5.5109Y-4.6936
X5.5109Y-4.8026
X5.5109Y-4.9117
X5.5109Y-5.0207
X5.5109Y-5.1298
X5.6227Y-4.7481
X5.6227Y-4.8572
X5.6227Y-4.9662
X5.6227Y-5.0753
T5
X1.1114Y-2.0154
X1.1114Y-2.1154
X1.1114Y-2.2154
X1.1114Y-2.3154
X1.1114Y-2.4543
X1.1114Y-2.5543
X1.1114Y-2.6543
X1.1114Y-2.7543
X1.1114Y-2.8543
X1.1114Y-2.9543
X1.1114Y-3.0543
X1.1114Y-3.1543
X1.1114Y-3.2543
X1.2114Y-2.0154
X1.2114Y-2.1154
X1.2114Y-2.2154
X1.2114Y-2.3154
X1.2114Y-2.4543
X1.2114Y-2.5543
X1.2114Y-2.6543
X1.2114Y-2.7543
X1.2114Y-2.8543
X1.2114Y-2.9543
X1.2114Y-3.0543
X1.2114Y-3.1543
X1.2114Y-3.2543
X1.4379Y-3.9401
X1.4379Y-4.0401
X1.4589Y-4.66
X1.4589Y-4.76
X1.5379Y-3.9401
X1.5379Y-4.0401
X1.5508Y-4.2181
X1.5508Y-4.3181
X1.5508Y-4.4181
X1.5508Y-4.5181
X1.5589Y-4.66
X1.5589Y-4.76
X1.6149Y-2.2088
X1.6149Y-2.3088
X1.6379Y-3.9401
X1.6379Y-4.0401
X1.6508Y-4.2181
X1.6508Y-4.3181
X1.6508Y-4.4181
X1.6508Y-4.5181
X1.7149Y-2.2088
X1.7149Y-2.3088
X1.8291Y-5.2059
X1.8291Y-5.3059
X1.8488Y-3.3681
X1.8488Y-3.4681
X1.8488Y-3.5681
X1.8488Y-3.6681
X1.8488Y-3.7681
X1.8488Y-3.8681
X1.8488Y-3.9681
X1.8488Y-4.0681
X1.8488Y-4.1681
X1.8488Y-4.2681
X1.8488Y-4.3681
X1.8488Y-4.4681
X1.8488Y-4.5681
X1.8488Y-4.6681
X1.8488Y-4.7681
X1.8488Y-4.8681
X1.8488Y-4.9681
X1.9291Y-5.2059
X1.9291Y-5.3059
X1.9488Y-3.3681
X1.9488Y-3.4681
X1.9488Y-3.5681
X1.9488Y-3.6681
X1.9488Y-3.7681
X1.9488Y-3.8681
X1.9488Y-3.9681
X1.9488Y-4.0681
X1.9488Y-4.1681
X1.9488Y-4.2681
X1.9488Y-4.3681
X1.9488Y-4.4681
X1.9488Y-4.5681
X1.9488Y-4.6681
X1.9488Y-4.7681
X1.9488Y-4.8681
X1.9488Y-4.9681
X2.0291Y-5.2059
X2.0291Y-5.3059
X2.1351Y-2.026
X2.2351Y-2.026
X2.3496Y-5.265
X2.3496Y-5.365
X2.4496Y-5.265
X2.4496Y-5.365
X2.5496Y-5.265
X2.5496Y-5.365
X2.6496Y-5.265
X2.6496Y-5.365
X2.7496Y-5.265
X2.7496Y-5.365
X2.8496Y-5.265
X2.8496Y-5.365
X2.9496Y-5.265
X2.9496Y-5.365
X3.0496Y-5.265
X3.0496Y-5.365
X3.1496Y-5.265
X3.1496Y-5.365
X3.2496Y-5.265
X3.2496Y-5.365
X3.3496Y-5.265
X3.3496Y-5.365
X3.4496Y-5.265
X3.4496Y-5.365
X3.5496Y-5.265
X3.5496Y-5.365
X3.6496Y-5.265
X3.6496Y-5.365
X3.7496Y-5.265
X3.7496Y-5.365
X3.8496Y-5.265
X3.8496Y-5.365
X3.9496Y-5.265
X3.9496Y-5.365
X4.3504Y-2.7681
X4.3504Y-2.8681
X4.3504Y-2.9681
X4.3504Y-3.0681
X4.3504Y-3.1681
X4.3504Y-3.2681
X4.3504Y-3.3681
X4.3504Y-3.4681
X4.3504Y-3.5681
X4.3504Y-3.6681
X4.3504Y-3.7681
X4.3504Y-3.8681
X4.3504Y-3.9681
X4.3504Y-4.0681
X4.3504Y-4.1681
X4.3504Y-4.2681
X4.3504Y-4.3681
X4.3504Y-4.4681
X4.3504Y-4.5681
X4.3504Y-4.6681
X4.3504Y-4.7681
X4.3504Y-4.8681
X4.3504Y-4.9681
X4.4504Y-2.7681
X4.4504Y-2.8681
X4.4504Y-2.9681
X4.4504Y-3.0681
X4.4504Y-3.1681
X4.4504Y-3.2681
X4.4504Y-3.3681
X4.4504Y-3.4681
X4.4504Y-3.5681
X4.4504Y-3.6681
X4.4504Y-3.7681
X4.4504Y-3.8681
X4.4504Y-3.9681
X4.4504Y-4.0681
X4.4504Y-4.1681
X4.4504Y-4.2681
X4.4504Y-4.3681
X4.4504Y-4.4681
X4.4504Y-4.5681
X4.4504Y-4.6681
X4.4504Y-4.7681
X4.4504Y-4.8681
X4.4504Y-4.9681
X4.7236Y-4.0138
X4.7236Y-4.1138
X4.7342Y-3.4937
X4.7342Y-3.5937
X4.7342Y-3.6937
X4.7342Y-3.7937
X4.8236Y-4.0138
X4.8236Y-4.1138
X4.8342Y-3.4937
X4.8342Y-3.5937
X4.8342Y-3.6937
X4.8342Y-3.7937
X4.9901Y-1.6162
X4.9901Y-1.7162
X4.9901Y-1.8162
X4.9969Y-4.6694
X4.9969Y-4.7694
X5.0901Y-1.6162
X5.0901Y-1.7162
X5.0901Y-1.8162
X5.0969Y-4.6694
X5.0969Y-4.7694
X5.3051Y-1.6162
X5.3051Y-1.7162
X5.3051Y-1.8162
X5.4051Y-1.6162
X5.4051Y-1.7162
X5.4051Y-1.8162
X5.4732Y-2.602
X5.4732Y-2.6807
X5.4732Y-2.7595
X5.6504Y-2.602
X5.6504Y-2.6807
X5.6504Y-2.7595
T6
X1.7333Y-2.6467
X1.7333Y-2.9419
T7
X1.1797Y-3.624
X1.1797Y-3.8209
X4.3986Y-1.893
X4.5955Y-1.893
T8
X1.2008Y-1.752
X1.2008Y-5.7087
X5.5227Y-4.4196
X5.5227Y-5.4038
X5.6299Y-1.752
X5.6299Y-5.7087
M30
