%TF.GenerationSoftware,KiCad,Pcbnew,8.0.5*%
%TF.CreationDate,2025-04-27T01:42:02+08:00*%
%TF.ProjectId,STM32_learning,53544d33-325f-46c6-9561-726e696e672e,rev?*%
%TF.SameCoordinates,Original*%
%TF.FileFunction,Paste,Top*%
%TF.FilePolarity,Positive*%
%FSLAX46Y46*%
G04 Gerber Fmt 4.6, Leading zero omitted, Abs format (unit mm)*
G04 Created by KiCad (PCBNEW 8.0.5) date 2025-04-27 01:42:02*
%MOMM*%
%LPD*%
G01*
G04 APERTURE LIST*
G04 Aperture macros list*
%AMRoundRect*
0 Rectangle with rounded corners*
0 $1 Rounding radius*
0 $2 $3 $4 $5 $6 $7 $8 $9 X,Y pos of 4 corners*
0 Add a 4 corners polygon primitive as box body*
4,1,4,$2,$3,$4,$5,$6,$7,$8,$9,$2,$3,0*
0 Add four circle primitives for the rounded corners*
1,1,$1+$1,$2,$3*
1,1,$1+$1,$4,$5*
1,1,$1+$1,$6,$7*
1,1,$1+$1,$8,$9*
0 Add four rect primitives between the rounded corners*
20,1,$1+$1,$2,$3,$4,$5,0*
20,1,$1+$1,$4,$5,$6,$7,0*
20,1,$1+$1,$6,$7,$8,$9,0*
20,1,$1+$1,$8,$9,$2,$3,0*%
G04 Aperture macros list end*
%ADD10RoundRect,0.225000X0.250000X-0.225000X0.250000X0.225000X-0.250000X0.225000X-0.250000X-0.225000X0*%
%ADD11R,1.500000X2.000000*%
%ADD12R,3.800000X2.000000*%
%ADD13RoundRect,0.250000X0.400000X0.600000X-0.400000X0.600000X-0.400000X-0.600000X0.400000X-0.600000X0*%
%ADD14R,0.900000X0.800000*%
%ADD15R,0.800000X0.900000*%
%ADD16RoundRect,0.225000X-0.225000X-0.250000X0.225000X-0.250000X0.225000X0.250000X-0.225000X0.250000X0*%
%ADD17RoundRect,0.225000X-0.250000X0.225000X-0.250000X-0.225000X0.250000X-0.225000X0.250000X0.225000X0*%
%ADD18RoundRect,0.200000X0.275000X-0.200000X0.275000X0.200000X-0.275000X0.200000X-0.275000X-0.200000X0*%
%ADD19O,2.200000X0.600000*%
%ADD20O,2.200000X0.650000*%
%ADD21RoundRect,0.225000X0.225000X0.250000X-0.225000X0.250000X-0.225000X-0.250000X0.225000X-0.250000X0*%
%ADD22RoundRect,0.200000X0.200000X0.275000X-0.200000X0.275000X-0.200000X-0.275000X0.200000X-0.275000X0*%
%ADD23RoundRect,0.250000X-0.282843X0.636396X-0.636396X0.282843X0.282843X-0.636396X0.636396X-0.282843X0*%
%ADD24RoundRect,0.200000X-0.275000X0.200000X-0.275000X-0.200000X0.275000X-0.200000X0.275000X0.200000X0*%
%ADD25RoundRect,0.225000X0.017678X-0.335876X0.335876X-0.017678X-0.017678X0.335876X-0.335876X0.017678X0*%
%ADD26RoundRect,0.200000X-0.200000X-0.275000X0.200000X-0.275000X0.200000X0.275000X-0.200000X0.275000X0*%
%ADD27RoundRect,0.150000X0.150000X-0.825000X0.150000X0.825000X-0.150000X0.825000X-0.150000X-0.825000X0*%
%ADD28RoundRect,0.243750X0.243750X0.456250X-0.243750X0.456250X-0.243750X-0.456250X0.243750X-0.456250X0*%
%ADD29RoundRect,0.075000X-0.565685X0.459619X0.459619X-0.565685X0.565685X-0.459619X-0.459619X0.565685X0*%
%ADD30RoundRect,0.075000X-0.565685X-0.459619X-0.459619X-0.565685X0.565685X0.459619X0.459619X0.565685X0*%
%ADD31R,2.300000X4.040000*%
%ADD32R,2.300000X4.350000*%
%ADD33R,1.500000X2.800000*%
%ADD34R,1.000000X1.500000*%
%ADD35R,0.700000X1.500000*%
%ADD36RoundRect,0.243750X-0.243750X-0.456250X0.243750X-0.456250X0.243750X0.456250X-0.243750X0.456250X0*%
%ADD37RoundRect,0.250000X-1.412500X-0.550000X1.412500X-0.550000X1.412500X0.550000X-1.412500X0.550000X0*%
%ADD38RoundRect,0.375000X-0.625000X-0.375000X0.625000X-0.375000X0.625000X0.375000X-0.625000X0.375000X0*%
%ADD39RoundRect,0.250000X0.450000X-0.262500X0.450000X0.262500X-0.450000X0.262500X-0.450000X-0.262500X0*%
%ADD40R,2.500000X0.500000*%
%ADD41R,2.500000X2.000000*%
%ADD42RoundRect,0.225000X-0.017678X0.335876X-0.335876X0.017678X0.017678X-0.335876X0.335876X-0.017678X0*%
%ADD43O,0.650000X2.200000*%
G04 APERTURE END LIST*
D10*
%TO.C,C30*%
X34105000Y-123465000D03*
X34105000Y-121915000D03*
%TD*%
D11*
%TO.C,U1*%
X127719000Y-71741000D03*
X130019000Y-71741000D03*
X132319000Y-71741000D03*
D12*
X130019000Y-65441000D03*
%TD*%
D13*
%TO.C,D1*%
X69700000Y-79125000D03*
X66200000Y-79125000D03*
%TD*%
D14*
%TO.C,Q2*%
X31165000Y-128125000D03*
X31165000Y-126225000D03*
X29165000Y-127175000D03*
%TD*%
D15*
%TO.C,Q1*%
X123639000Y-78411000D03*
X121739000Y-78411000D03*
X122689000Y-80411000D03*
%TD*%
D16*
%TO.C,C26*%
X36542500Y-89787500D03*
X38092500Y-89787500D03*
%TD*%
D17*
%TO.C,C22*%
X135065875Y-131596625D03*
X135065875Y-133146625D03*
%TD*%
D18*
%TO.C,R19*%
X34105000Y-120025000D03*
X34105000Y-118375000D03*
%TD*%
D19*
%TO.C,U5*%
X131240875Y-133590375D03*
X131240875Y-132320375D03*
X131240875Y-131050375D03*
X131240875Y-129780375D03*
X131240875Y-128510375D03*
X131240875Y-127240375D03*
X131240875Y-125970375D03*
X131240875Y-124700375D03*
X124890875Y-124700375D03*
X124890875Y-125970375D03*
X124890875Y-127240375D03*
X124890875Y-128510375D03*
X124890875Y-129780375D03*
X124890875Y-131050375D03*
X124890875Y-132320375D03*
X124890875Y-133590375D03*
%TD*%
D20*
%TO.C,U7*%
X30289500Y-109190000D03*
X30289500Y-110460000D03*
X30289500Y-111730000D03*
X30289500Y-113000000D03*
X35369500Y-113000000D03*
X35369500Y-111730000D03*
X35369500Y-110460000D03*
X35369500Y-109190000D03*
%TD*%
D21*
%TO.C,C17*%
X128214000Y-95721000D03*
X126664000Y-95721000D03*
%TD*%
D22*
%TO.C,R26*%
X41984500Y-43354500D03*
X40334500Y-43354500D03*
%TD*%
D18*
%TO.C,R23*%
X61162500Y-50155000D03*
X61162500Y-48505000D03*
%TD*%
D22*
%TO.C,R9*%
X31600000Y-88625000D03*
X29950000Y-88625000D03*
%TD*%
D23*
%TO.C,Y2*%
X74819758Y-97270242D03*
X73051992Y-99038008D03*
%TD*%
D24*
%TO.C,R8*%
X29965000Y-101065000D03*
X29965000Y-102715000D03*
%TD*%
D22*
%TO.C,R25*%
X130019000Y-74491000D03*
X128369000Y-74591000D03*
%TD*%
D25*
%TO.C,C12*%
X58468270Y-98131731D03*
X59564286Y-97035715D03*
%TD*%
D24*
%TO.C,R7*%
X121789000Y-82186000D03*
X121789000Y-83836000D03*
%TD*%
D22*
%TO.C,R20*%
X130399000Y-101971000D03*
X128749000Y-101971000D03*
%TD*%
D25*
%TO.C,C8*%
X91401992Y-110398008D03*
X92498008Y-109301992D03*
%TD*%
D21*
%TO.C,C21*%
X124840875Y-135371625D03*
X123290875Y-135371625D03*
%TD*%
D26*
%TO.C,R5*%
X49005000Y-128900000D03*
X50655000Y-128900000D03*
%TD*%
D18*
%TO.C,R13*%
X69615000Y-68905000D03*
X69615000Y-67255000D03*
%TD*%
D22*
%TO.C,R27*%
X41984500Y-41604500D03*
X40334500Y-41604500D03*
%TD*%
D21*
%TO.C,C27*%
X35349500Y-107249000D03*
X33799500Y-107249000D03*
%TD*%
D27*
%TO.C,U8*%
X112220000Y-62245000D03*
X113490000Y-62245000D03*
X114760000Y-62245000D03*
X116030000Y-62245000D03*
X116030000Y-57295000D03*
X114760000Y-57295000D03*
X113490000Y-57295000D03*
X112220000Y-57295000D03*
%TD*%
D18*
%TO.C,R24*%
X36715000Y-128140000D03*
X36715000Y-126490000D03*
%TD*%
D22*
%TO.C,R29*%
X57255000Y-133710000D03*
X55605000Y-133710000D03*
%TD*%
D28*
%TO.C,F1*%
X144019000Y-74091000D03*
X142144000Y-74091000D03*
%TD*%
D16*
%TO.C,C6*%
X64850000Y-112100000D03*
X66400000Y-112100000D03*
%TD*%
D29*
%TO.C,U2*%
X78815596Y-101280315D03*
X78462043Y-101633868D03*
X78108489Y-101987422D03*
X77754936Y-102340975D03*
X77401383Y-102694528D03*
X77047829Y-103048082D03*
X76694276Y-103401635D03*
X76340722Y-103755189D03*
X75987169Y-104108742D03*
X75633616Y-104462295D03*
X75280062Y-104815849D03*
X74926509Y-105169402D03*
X74572955Y-105522955D03*
X74219402Y-105876509D03*
X73865849Y-106230062D03*
X73512295Y-106583616D03*
X73158742Y-106937169D03*
X72805189Y-107290722D03*
X72451635Y-107644276D03*
X72098082Y-107997829D03*
X71744528Y-108351383D03*
X71390975Y-108704936D03*
X71037422Y-109058489D03*
X70683868Y-109412043D03*
X70330315Y-109765596D03*
D30*
X70330315Y-112134404D03*
X70683868Y-112487957D03*
X71037422Y-112841511D03*
X71390975Y-113195064D03*
X71744528Y-113548617D03*
X72098082Y-113902171D03*
X72451635Y-114255724D03*
X72805189Y-114609278D03*
X73158742Y-114962831D03*
X73512295Y-115316384D03*
X73865849Y-115669938D03*
X74219402Y-116023491D03*
X74572955Y-116377045D03*
X74926509Y-116730598D03*
X75280062Y-117084151D03*
X75633616Y-117437705D03*
X75987169Y-117791258D03*
X76340722Y-118144811D03*
X76694276Y-118498365D03*
X77047829Y-118851918D03*
X77401383Y-119205472D03*
X77754936Y-119559025D03*
X78108489Y-119912578D03*
X78462043Y-120266132D03*
X78815596Y-120619685D03*
D29*
X81184404Y-120619685D03*
X81537957Y-120266132D03*
X81891511Y-119912578D03*
X82245064Y-119559025D03*
X82598617Y-119205472D03*
X82952171Y-118851918D03*
X83305724Y-118498365D03*
X83659278Y-118144811D03*
X84012831Y-117791258D03*
X84366384Y-117437705D03*
X84719938Y-117084151D03*
X85073491Y-116730598D03*
X85427045Y-116377045D03*
X85780598Y-116023491D03*
X86134151Y-115669938D03*
X86487705Y-115316384D03*
X86841258Y-114962831D03*
X87194811Y-114609278D03*
X87548365Y-114255724D03*
X87901918Y-113902171D03*
X88255472Y-113548617D03*
X88609025Y-113195064D03*
X88962578Y-112841511D03*
X89316132Y-112487957D03*
X89669685Y-112134404D03*
D30*
X89669685Y-109765596D03*
X89316132Y-109412043D03*
X88962578Y-109058489D03*
X88609025Y-108704936D03*
X88255472Y-108351383D03*
X87901918Y-107997829D03*
X87548365Y-107644276D03*
X87194811Y-107290722D03*
X86841258Y-106937169D03*
X86487705Y-106583616D03*
X86134151Y-106230062D03*
X85780598Y-105876509D03*
X85427045Y-105522955D03*
X85073491Y-105169402D03*
X84719938Y-104815849D03*
X84366384Y-104462295D03*
X84012831Y-104108742D03*
X83659278Y-103755189D03*
X83305724Y-103401635D03*
X82952171Y-103048082D03*
X82598617Y-102694528D03*
X82245064Y-102340975D03*
X81891511Y-101987422D03*
X81537957Y-101633868D03*
X81184404Y-101280315D03*
%TD*%
D21*
%TO.C,C4*%
X125119000Y-65441000D03*
X123569000Y-65441000D03*
%TD*%
D31*
%TO.C,BT1*%
X44025000Y-79125000D03*
D32*
X44025000Y-63160000D03*
%TD*%
D33*
%TO.C,J15*%
X92650000Y-63175000D03*
X92650000Y-41675000D03*
X67700000Y-63175000D03*
X65350000Y-41675000D03*
D34*
X72120000Y-64950000D03*
X74620000Y-64950000D03*
X77120000Y-64950000D03*
X79620000Y-64950000D03*
X82120000Y-64950000D03*
X84620000Y-64950000D03*
X87120000Y-64950000D03*
X88750000Y-64950000D03*
X69620000Y-64950000D03*
D35*
X90050000Y-64975000D03*
X91250000Y-64950000D03*
%TD*%
D27*
%TO.C,U3*%
X125749000Y-86531000D03*
X127019000Y-86531000D03*
X128289000Y-86531000D03*
X129559000Y-86531000D03*
X130829000Y-86531000D03*
X132099000Y-86531000D03*
X133369000Y-86531000D03*
X134639000Y-86531000D03*
X134639000Y-81581000D03*
X133369000Y-81581000D03*
X132099000Y-81581000D03*
X130829000Y-81581000D03*
X129559000Y-81581000D03*
X128289000Y-81581000D03*
X127019000Y-81581000D03*
X125749000Y-81581000D03*
%TD*%
D18*
%TO.C,R15*%
X74655000Y-68865000D03*
X74655000Y-67215000D03*
%TD*%
D22*
%TO.C,R10*%
X115000000Y-53850000D03*
X113350000Y-53850000D03*
%TD*%
%TO.C,R28*%
X32174500Y-107240000D03*
X30524500Y-107240000D03*
%TD*%
D36*
%TO.C,D6*%
X125124000Y-104471000D03*
X126999000Y-104471000D03*
%TD*%
D37*
%TO.C,C2*%
X134781500Y-57071000D03*
X139856500Y-57071000D03*
%TD*%
D15*
%TO.C,Q3*%
X59232500Y-46930000D03*
X61132500Y-46930000D03*
X60182500Y-44930000D03*
%TD*%
D38*
%TO.C,SW3*%
X61650000Y-141500000D03*
X70650000Y-141500000D03*
X61650000Y-146000000D03*
X70650000Y-146000000D03*
%TD*%
D39*
%TO.C,R18*%
X39895000Y-127997500D03*
X39895000Y-126172500D03*
%TD*%
D17*
%TO.C,C29*%
X79635000Y-67270000D03*
X79635000Y-68820000D03*
%TD*%
D16*
%TO.C,C9*%
X79575000Y-98250000D03*
X81125000Y-98250000D03*
%TD*%
D40*
%TO.C,J1*%
X138894000Y-101171000D03*
X138894000Y-100371000D03*
X138894000Y-99571000D03*
X138894000Y-98771000D03*
X138894000Y-97971000D03*
D41*
X138894000Y-103971000D03*
X144394000Y-103971000D03*
X138894000Y-95171000D03*
X144394000Y-95171000D03*
%TD*%
D17*
%TO.C,C19*%
X133500000Y-143467500D03*
X133500000Y-145017500D03*
%TD*%
D18*
%TO.C,R11*%
X87125000Y-68895000D03*
X87125000Y-67245000D03*
%TD*%
%TO.C,R22*%
X59252500Y-50195000D03*
X59252500Y-48545000D03*
%TD*%
D42*
%TO.C,C14*%
X71676257Y-97323743D03*
X70580241Y-98419759D03*
%TD*%
D18*
%TO.C,R12*%
X88765000Y-68875000D03*
X88765000Y-67225000D03*
%TD*%
D10*
%TO.C,C28*%
X117885000Y-60545000D03*
X117885000Y-58995000D03*
%TD*%
D18*
%TO.C,R17*%
X33965000Y-128150000D03*
X33965000Y-126500000D03*
%TD*%
D38*
%TO.C,SW5*%
X85650000Y-141500000D03*
X94650000Y-141500000D03*
X85650000Y-146000000D03*
X94650000Y-146000000D03*
%TD*%
%TO.C,SW4*%
X73650000Y-141500000D03*
X82650000Y-141500000D03*
X73650000Y-146000000D03*
X82650000Y-146000000D03*
%TD*%
D36*
%TO.C,D7*%
X124831500Y-74591000D03*
X126706500Y-74591000D03*
%TD*%
D16*
%TO.C,C20*%
X40349500Y-45104500D03*
X41899500Y-45104500D03*
%TD*%
D40*
%TO.C,J16*%
X138894000Y-85691000D03*
X138894000Y-84891000D03*
X138894000Y-84091000D03*
X138894000Y-83291000D03*
X138894000Y-82491000D03*
D41*
X138894000Y-88491000D03*
X144394000Y-88491000D03*
X138894000Y-79691000D03*
X144394000Y-79691000D03*
%TD*%
D18*
%TO.C,R16*%
X135519000Y-101221000D03*
X135519000Y-99571000D03*
%TD*%
D37*
%TO.C,C3*%
X125081500Y-57071000D03*
X130156500Y-57071000D03*
%TD*%
D21*
%TO.C,C18*%
X133744000Y-95691000D03*
X132194000Y-95691000D03*
%TD*%
D43*
%TO.C,U4*%
X40340500Y-53113500D03*
X41610500Y-53113500D03*
X42880500Y-53113500D03*
X44150500Y-53113500D03*
X44150500Y-48033500D03*
X42880500Y-48033500D03*
X41610500Y-48033500D03*
X40340500Y-48033500D03*
%TD*%
D22*
%TO.C,R30*%
X104895000Y-133720000D03*
X103245000Y-133720000D03*
%TD*%
%TO.C,R21*%
X130399000Y-104471000D03*
X128749000Y-104471000D03*
%TD*%
D13*
%TO.C,D2*%
X69700000Y-76405000D03*
X66200000Y-76405000D03*
%TD*%
D38*
%TO.C,SW2*%
X49650000Y-141500000D03*
X58650000Y-141500000D03*
X49650000Y-146000000D03*
X58650000Y-146000000D03*
%TD*%
D27*
%TO.C,U6*%
X36537500Y-97032500D03*
X37807500Y-97032500D03*
X39077500Y-97032500D03*
X40347500Y-97032500D03*
X40347500Y-92082500D03*
X39077500Y-92082500D03*
X37807500Y-92082500D03*
X36537500Y-92082500D03*
%TD*%
D25*
%TO.C,C15*%
X73080241Y-95919759D03*
X74176257Y-94823743D03*
%TD*%
D18*
%TO.C,R14*%
X72115000Y-68865000D03*
X72115000Y-67215000D03*
%TD*%
D25*
%TO.C,C13*%
X60818270Y-95781731D03*
X61914286Y-94685715D03*
%TD*%
D36*
%TO.C,D5*%
X125124000Y-101971000D03*
X126999000Y-101971000D03*
%TD*%
D17*
%TO.C,C1*%
X134819000Y-71741000D03*
X134819000Y-73291000D03*
%TD*%
D22*
%TO.C,R6*%
X128299000Y-78411000D03*
X126649000Y-78411000D03*
%TD*%
D17*
%TO.C,C25*%
X135065875Y-124596625D03*
X135065875Y-126146625D03*
%TD*%
%TO.C,C23*%
X135065875Y-128096625D03*
X135065875Y-129646625D03*
%TD*%
%TO.C,C16*%
X123739000Y-82231000D03*
X123739000Y-83781000D03*
%TD*%
D22*
%TO.C,R4*%
X50625000Y-138800000D03*
X48975000Y-138800000D03*
%TD*%
D10*
%TO.C,C24*%
X135065875Y-136646625D03*
X135065875Y-135096625D03*
%TD*%
%TO.C,C7*%
X78050000Y-124025000D03*
X78050000Y-122475000D03*
%TD*%
M02*
