%TF.GenerationSoftware,KiCad,Pcbnew,8.0.5*%
%TF.CreationDate,2025-04-27T01:42:02+08:00*%
%TF.ProjectId,STM32_learning,53544d33-325f-46c6-9561-726e696e672e,rev?*%
%TF.SameCoordinates,Original*%
%TF.FileFunction,Legend,Bot*%
%TF.FilePolarity,Positive*%
%FSLAX46Y46*%
G04 Gerber Fmt 4.6, Leading zero omitted, Abs format (unit mm)*
G04 Created by KiCad (PCBNEW 8.0.5) date 2025-04-27 01:42:02*
%MOMM*%
%LPD*%
G01*
G04 APERTURE LIST*
%ADD10C,0.150000*%
%ADD11C,0.120000*%
G04 APERTURE END LIST*
D10*
X68169418Y-99316779D02*
X68236762Y-99316779D01*
X68236762Y-99316779D02*
X68371449Y-99249435D01*
X68371449Y-99249435D02*
X68438792Y-99182092D01*
X68438792Y-99182092D02*
X68506136Y-99047405D01*
X68506136Y-99047405D02*
X68506136Y-98912718D01*
X68506136Y-98912718D02*
X68472464Y-98811703D01*
X68472464Y-98811703D02*
X68371449Y-98643344D01*
X68371449Y-98643344D02*
X68270434Y-98542329D01*
X68270434Y-98542329D02*
X68102075Y-98441313D01*
X68102075Y-98441313D02*
X68001060Y-98407642D01*
X68001060Y-98407642D02*
X67866373Y-98407642D01*
X67866373Y-98407642D02*
X67731686Y-98474985D01*
X67731686Y-98474985D02*
X67664342Y-98542329D01*
X67664342Y-98542329D02*
X67596999Y-98677016D01*
X67596999Y-98677016D02*
X67596999Y-98744359D01*
X67563327Y-100057557D02*
X67967388Y-99653496D01*
X67765357Y-99855527D02*
X67058251Y-99148420D01*
X67058251Y-99148420D02*
X67226609Y-99182092D01*
X67226609Y-99182092D02*
X67361296Y-99182092D01*
X67361296Y-99182092D02*
X67462312Y-99148420D01*
X66889892Y-100730993D02*
X67293953Y-100326932D01*
X67091922Y-100528962D02*
X66384815Y-99821855D01*
X66384815Y-99821855D02*
X66553174Y-99855527D01*
X66553174Y-99855527D02*
X66687861Y-99855527D01*
X66687861Y-99855527D02*
X66788876Y-99821855D01*
X77346245Y-115514456D02*
X77918664Y-115413441D01*
X77750306Y-115918517D02*
X78457412Y-115211410D01*
X78457412Y-115211410D02*
X78188038Y-114942036D01*
X78188038Y-114942036D02*
X78087023Y-114908364D01*
X78087023Y-114908364D02*
X78019680Y-114908364D01*
X78019680Y-114908364D02*
X77918664Y-114942036D01*
X77918664Y-114942036D02*
X77817649Y-115043051D01*
X77817649Y-115043051D02*
X77783977Y-115144067D01*
X77783977Y-115144067D02*
X77783977Y-115211410D01*
X77783977Y-115211410D02*
X77817649Y-115312425D01*
X77817649Y-115312425D02*
X78087023Y-115581799D01*
X76672810Y-114841021D02*
X77076871Y-115245082D01*
X76874840Y-115043051D02*
X77581947Y-114335945D01*
X77581947Y-114335945D02*
X77548275Y-114504303D01*
X77548275Y-114504303D02*
X77548275Y-114638990D01*
X77548275Y-114638990D02*
X77581947Y-114740006D01*
X65411207Y-102082003D02*
X65310192Y-101509584D01*
X65815268Y-101677942D02*
X65108161Y-100970836D01*
X65108161Y-100970836D02*
X64838787Y-101240210D01*
X64838787Y-101240210D02*
X64805115Y-101341225D01*
X64805115Y-101341225D02*
X64805115Y-101408568D01*
X64805115Y-101408568D02*
X64838787Y-101509584D01*
X64838787Y-101509584D02*
X64939802Y-101610599D01*
X64939802Y-101610599D02*
X65040818Y-101644271D01*
X65040818Y-101644271D02*
X65108161Y-101644271D01*
X65108161Y-101644271D02*
X65209176Y-101610599D01*
X65209176Y-101610599D02*
X65478550Y-101341225D01*
X64468398Y-101610599D02*
X64030665Y-102048332D01*
X64030665Y-102048332D02*
X64535741Y-102082003D01*
X64535741Y-102082003D02*
X64434726Y-102183019D01*
X64434726Y-102183019D02*
X64401054Y-102284034D01*
X64401054Y-102284034D02*
X64401054Y-102351377D01*
X64401054Y-102351377D02*
X64434726Y-102452393D01*
X64434726Y-102452393D02*
X64603085Y-102620751D01*
X64603085Y-102620751D02*
X64704100Y-102654423D01*
X64704100Y-102654423D02*
X64771444Y-102654423D01*
X64771444Y-102654423D02*
X64872459Y-102620751D01*
X64872459Y-102620751D02*
X65074489Y-102418721D01*
X65074489Y-102418721D02*
X65108161Y-102317706D01*
X65108161Y-102317706D02*
X65108161Y-102250362D01*
X79411524Y-108369325D02*
X79478868Y-108369325D01*
X79478868Y-108369325D02*
X79613555Y-108301981D01*
X79613555Y-108301981D02*
X79680898Y-108234638D01*
X79680898Y-108234638D02*
X79748242Y-108099951D01*
X79748242Y-108099951D02*
X79748242Y-107965264D01*
X79748242Y-107965264D02*
X79714570Y-107864249D01*
X79714570Y-107864249D02*
X79613555Y-107695890D01*
X79613555Y-107695890D02*
X79512540Y-107594875D01*
X79512540Y-107594875D02*
X79344181Y-107493859D01*
X79344181Y-107493859D02*
X79243166Y-107460188D01*
X79243166Y-107460188D02*
X79108479Y-107460188D01*
X79108479Y-107460188D02*
X78973792Y-107527531D01*
X78973792Y-107527531D02*
X78906448Y-107594875D01*
X78906448Y-107594875D02*
X78839105Y-107729562D01*
X78839105Y-107729562D02*
X78839105Y-107796905D01*
X78131998Y-108369325D02*
X78468715Y-108032607D01*
X78468715Y-108032607D02*
X78839105Y-108335653D01*
X78839105Y-108335653D02*
X78771761Y-108335653D01*
X78771761Y-108335653D02*
X78670746Y-108369325D01*
X78670746Y-108369325D02*
X78502387Y-108537684D01*
X78502387Y-108537684D02*
X78468715Y-108638699D01*
X78468715Y-108638699D02*
X78468715Y-108706042D01*
X78468715Y-108706042D02*
X78502387Y-108807058D01*
X78502387Y-108807058D02*
X78670746Y-108975416D01*
X78670746Y-108975416D02*
X78771761Y-109009088D01*
X78771761Y-109009088D02*
X78839105Y-109009088D01*
X78839105Y-109009088D02*
X78940120Y-108975416D01*
X78940120Y-108975416D02*
X79108479Y-108807058D01*
X79108479Y-108807058D02*
X79142150Y-108706042D01*
X79142150Y-108706042D02*
X79142150Y-108638699D01*
X76219993Y-111560856D02*
X76287337Y-111560856D01*
X76287337Y-111560856D02*
X76422024Y-111493512D01*
X76422024Y-111493512D02*
X76489367Y-111426169D01*
X76489367Y-111426169D02*
X76556711Y-111291482D01*
X76556711Y-111291482D02*
X76556711Y-111156795D01*
X76556711Y-111156795D02*
X76523039Y-111055780D01*
X76523039Y-111055780D02*
X76422024Y-110887421D01*
X76422024Y-110887421D02*
X76321009Y-110786406D01*
X76321009Y-110786406D02*
X76152650Y-110685390D01*
X76152650Y-110685390D02*
X76051635Y-110651719D01*
X76051635Y-110651719D02*
X75916948Y-110651719D01*
X75916948Y-110651719D02*
X75782261Y-110719062D01*
X75782261Y-110719062D02*
X75714917Y-110786406D01*
X75714917Y-110786406D02*
X75647574Y-110921093D01*
X75647574Y-110921093D02*
X75647574Y-110988436D01*
X75613902Y-112301634D02*
X76017963Y-111897573D01*
X75815932Y-112099604D02*
X75108826Y-111392497D01*
X75108826Y-111392497D02*
X75277184Y-111426169D01*
X75277184Y-111426169D02*
X75411871Y-111426169D01*
X75411871Y-111426169D02*
X75512887Y-111392497D01*
X74469062Y-112032261D02*
X74401719Y-112099604D01*
X74401719Y-112099604D02*
X74368047Y-112200619D01*
X74368047Y-112200619D02*
X74368047Y-112267963D01*
X74368047Y-112267963D02*
X74401719Y-112368978D01*
X74401719Y-112368978D02*
X74502734Y-112537337D01*
X74502734Y-112537337D02*
X74671093Y-112705696D01*
X74671093Y-112705696D02*
X74839451Y-112806711D01*
X74839451Y-112806711D02*
X74940467Y-112840383D01*
X74940467Y-112840383D02*
X75007810Y-112840383D01*
X75007810Y-112840383D02*
X75108825Y-112806711D01*
X75108825Y-112806711D02*
X75176169Y-112739367D01*
X75176169Y-112739367D02*
X75209841Y-112638352D01*
X75209841Y-112638352D02*
X75209841Y-112571009D01*
X75209841Y-112571009D02*
X75176169Y-112469993D01*
X75176169Y-112469993D02*
X75075154Y-112301635D01*
X75075154Y-112301635D02*
X74906795Y-112133276D01*
X74906795Y-112133276D02*
X74738436Y-112032261D01*
X74738436Y-112032261D02*
X74637421Y-111998589D01*
X74637421Y-111998589D02*
X74570077Y-111998589D01*
X74570077Y-111998589D02*
X74469062Y-112032261D01*
X80419418Y-103366779D02*
X80486762Y-103366779D01*
X80486762Y-103366779D02*
X80621449Y-103299435D01*
X80621449Y-103299435D02*
X80688792Y-103232092D01*
X80688792Y-103232092D02*
X80756136Y-103097405D01*
X80756136Y-103097405D02*
X80756136Y-102962718D01*
X80756136Y-102962718D02*
X80722464Y-102861703D01*
X80722464Y-102861703D02*
X80621449Y-102693344D01*
X80621449Y-102693344D02*
X80520434Y-102592329D01*
X80520434Y-102592329D02*
X80352075Y-102491313D01*
X80352075Y-102491313D02*
X80251060Y-102457642D01*
X80251060Y-102457642D02*
X80116373Y-102457642D01*
X80116373Y-102457642D02*
X79981686Y-102524985D01*
X79981686Y-102524985D02*
X79914342Y-102592329D01*
X79914342Y-102592329D02*
X79846999Y-102727016D01*
X79846999Y-102727016D02*
X79846999Y-102794359D01*
X79543953Y-102962718D02*
X79106220Y-103400451D01*
X79106220Y-103400451D02*
X79611296Y-103434122D01*
X79611296Y-103434122D02*
X79510281Y-103535138D01*
X79510281Y-103535138D02*
X79476609Y-103636153D01*
X79476609Y-103636153D02*
X79476609Y-103703496D01*
X79476609Y-103703496D02*
X79510281Y-103804512D01*
X79510281Y-103804512D02*
X79678640Y-103972870D01*
X79678640Y-103972870D02*
X79779655Y-104006542D01*
X79779655Y-104006542D02*
X79846999Y-104006542D01*
X79846999Y-104006542D02*
X79948014Y-103972870D01*
X79948014Y-103972870D02*
X80150044Y-103770840D01*
X80150044Y-103770840D02*
X80183716Y-103669825D01*
X80183716Y-103669825D02*
X80183716Y-103602481D01*
X79139892Y-104780993D02*
X79543953Y-104376932D01*
X79341922Y-104578962D02*
X78634815Y-103871855D01*
X78634815Y-103871855D02*
X78803174Y-103905527D01*
X78803174Y-103905527D02*
X78937861Y-103905527D01*
X78937861Y-103905527D02*
X79038876Y-103871855D01*
X78571245Y-114414456D02*
X79143664Y-114313441D01*
X78975306Y-114818517D02*
X79682412Y-114111410D01*
X79682412Y-114111410D02*
X79413038Y-113842036D01*
X79413038Y-113842036D02*
X79312023Y-113808364D01*
X79312023Y-113808364D02*
X79244680Y-113808364D01*
X79244680Y-113808364D02*
X79143664Y-113842036D01*
X79143664Y-113842036D02*
X79042649Y-113943051D01*
X79042649Y-113943051D02*
X79008977Y-114044067D01*
X79008977Y-114044067D02*
X79008977Y-114111410D01*
X79008977Y-114111410D02*
X79042649Y-114212425D01*
X79042649Y-114212425D02*
X79312023Y-114481799D01*
X78941634Y-113505319D02*
X78941634Y-113437975D01*
X78941634Y-113437975D02*
X78907962Y-113336960D01*
X78907962Y-113336960D02*
X78739603Y-113168601D01*
X78739603Y-113168601D02*
X78638588Y-113134929D01*
X78638588Y-113134929D02*
X78571245Y-113134929D01*
X78571245Y-113134929D02*
X78470229Y-113168601D01*
X78470229Y-113168601D02*
X78402886Y-113235945D01*
X78402886Y-113235945D02*
X78335542Y-113370632D01*
X78335542Y-113370632D02*
X78335542Y-114178754D01*
X78335542Y-114178754D02*
X77897810Y-113741021D01*
D11*
%TO.C,C11*%
X68011721Y-100267030D02*
X68210532Y-100068219D01*
X68732970Y-100988279D02*
X68931781Y-100789468D01*
%TO.C,R1*%
X75362770Y-113476697D02*
X75698303Y-113812230D01*
X76101697Y-112737770D02*
X76437230Y-113073303D01*
%TO.C,R3*%
X65770054Y-102441019D02*
X65434521Y-102776552D01*
X66508981Y-103179946D02*
X66173448Y-103515479D01*
%TO.C,C5*%
X77767030Y-106761721D02*
X77568219Y-106960532D01*
X78488279Y-107482970D02*
X78289468Y-107681781D01*
%TO.C,C10*%
X74238781Y-110289970D02*
X74039970Y-110488781D01*
X74960030Y-111011219D02*
X74761219Y-111210030D01*
%TO.C,C31*%
X80261721Y-104317030D02*
X80460532Y-104118219D01*
X80982970Y-105038279D02*
X81181781Y-104839468D01*
%TO.C,R2*%
X76487770Y-112376697D02*
X76823303Y-112712230D01*
X77226697Y-111637770D02*
X77562230Y-111973303D01*
%TD*%
M02*
